<?xml version="1.0" encoding="UTF-8"?>
<!DOCTYPE svg PUBLIC "-//W3C//DTD SVG 1.1//EN" "http://www.w3.org/Graphics/SVG/1.1/DTD/svg11.dtd">
<!-- Creator: CorelDRAW 2020 (64-Bit) -->
<svg xmlns="http://www.w3.org/2000/svg" xml:space="preserve" width="800px" height="800px" version="1.1" style="shape-rendering:geometricPrecision; text-rendering:geometricPrecision; image-rendering:optimizeQuality; fill-rule:evenodd; clip-rule:evenodd"
viewBox="0 0 800 800"
 xmlns:xlink="http://www.w3.org/1999/xlink"
 xmlns:xodm="http://www.corel.com/coreldraw/odm/2003">
 <defs>
  <style type="text/css">
   <![CDATA[
    .str0 {stroke:#FEFEFE;stroke-width:2.36;stroke-miterlimit:22.9256}
    .fil1 {fill:none}
    .fil0 {fill:#FEFEFE}
   ]]>
  </style>
 </defs>
 <g id="Слой_x0020_1">
  <metadata id="CorelCorpID_0Corel-Layer"/>
  <g>
   <path class="fil0" d="M361.99 297c1.27,5.87 2.14,13.19 2.26,22.3l-2.26 -22.3zm2.26 26.98c-0.11,7.76 -0.72,16.69 -2.01,26.99l2.01 -26.99zm-3.24 35.8l-0.01 0.07 0.01 -0.07zm116.71 49.19l0 38.48c45.92,15.54 76.78,44.42 76.78,77.49 0,49.51 -69.17,89.64 -154.5,89.64 -48.04,0 -90.96,-12.72 -119.3,-32.68l14.54 -14.54c23.09,19.17 61.4,31.7 104.76,31.7 70.56,0 127.75,-33.18 127.75,-74.12 0,-23.97 -19.61,-45.28 -50.03,-58.83l0 36.78c0,7.88 -6.45,14.33 -14.34,14.33l-118 0 157.38 -157.37 91.68 0c13.51,0 24.56,11.05 24.56,24.56l0 0c0,13.51 -11.05,24.56 -24.56,24.56l-116.72 0zm-155.44 0.89l0 -0.89 -116.72 0c-13.51,0 -24.56,-11.05 -24.56,-24.56l0 0c0,-13.51 11.05,-24.56 24.56,-24.56l155.44 0c0,-5.55 1.16,-10.83 3.25,-15.61l0 -20.26 0 -4.68 0 -20.43c-0.77,-0.6 -1.52,-1.22 -2.26,-1.87 -12.18,-10.6 -19.88,-26.22 -19.88,-43.64 0,-31.95 25.92,-57.86 57.89,-57.86 31.97,0 57.89,25.91 57.89,57.86 0,10.26 -2.67,19.89 -7.35,28.24l-128.26 128.26z"/>
   <path id="1" class="fil1 str0" d="M361.99 297c1.27,5.87 2.14,13.19 2.26,22.3m0 4.68c-0.11,7.76 -0.72,16.69 -2.01,26.99m-1.23 8.81l-0.01 0.07m116.72 49.12l0 38.48c45.92,15.54 76.78,44.42 76.78,77.49 0,49.51 -69.17,89.64 -154.5,89.64 -48.04,0 -90.96,-12.72 -119.3,-32.68l14.54 -14.54c23.09,19.17 61.4,31.7 104.76,31.7 70.56,0 127.75,-33.18 127.75,-74.12 0,-23.97 -19.61,-45.28 -50.03,-58.83l0 36.78c0,7.88 -6.45,14.33 -14.34,14.33l-118 0 157.38 -157.37 91.68 0c13.51,0 24.56,11.05 24.56,24.56l0 0c0,13.51 -11.05,24.56 -24.56,24.56l-116.72 0zm-155.44 0.89l0 -0.89 -116.72 0c-13.51,0 -24.56,-11.05 -24.56,-24.56l0 0c0,-13.51 11.05,-24.56 24.56,-24.56l155.44 0c0,-5.55 1.16,-10.83 3.25,-15.61l0 -20.26 0 -4.68 0 -20.43c-0.77,-0.6 -1.52,-1.22 -2.26,-1.87 -12.18,-10.6 -19.88,-26.22 -19.88,-43.64 0,-31.95 25.92,-57.86 57.89,-57.86 31.97,0 57.89,25.91 57.89,57.86 0,10.26 -2.67,19.89 -7.35,28.24l-128.26 128.26z"/>
  </g>
  <polygon class="fil0 str0" points="119.21,637.94 638.23,118.92 680.79,161.48 161.77,680.5 "/>
  <path class="fil0 str0" d="M401 2c219.81,0 398,178.19 398,398 0,219.81 -178.19,398 -398,398 -219.81,0 -398,-178.19 -398,-398 0,-219.81 178.19,-398 398,-398zm0 68c182.25,0 330,147.75 330,330 0,182.25 -147.75,330 -330,330 -182.25,0 -330,-147.75 -330,-330 0,-182.25 147.75,-330 330,-330z"/>
 </g>
</svg>
